<svg width="16" height="17" viewBox="0 0 16 17" fill="none" xmlns="http://www.w3.org/2000/svg">
<path d="M0.000227049 8.52124C0.000227049 8.75912 0.140759 8.97576 0.359824 9.06072L3.7202 10.3861C4.90232 10.8533 5.82818 11.8218 6.26218 13.0495L7.53936 16.6644C7.54763 16.6899 7.5683 16.7111 7.5807 16.7366C7.5931 16.7579 7.60136 16.7749 7.61376 16.7961C7.63443 16.8258 7.6551 16.8471 7.6799 16.8726C7.7171 16.9108 7.76256 16.9405 7.81216 16.9618C7.8411 16.9745 7.87416 16.9873 7.9031 16.9873C7.93203 16.9957 7.9651 17 7.99403 17L8.09323 16.9873C8.12216 16.9873 8.15523 16.9703 8.18416 16.9618C8.23376 16.9405 8.27923 16.9065 8.31643 16.8683C8.34123 16.8471 8.36189 16.8216 8.38256 16.7961C8.39496 16.7791 8.40322 16.7621 8.41149 16.7451C8.42802 16.7196 8.44869 16.6941 8.46109 16.6644L9.73828 13.0495C10.1681 11.8218 11.094 10.8533 12.2761 10.3861L15.6365 9.06072C15.8556 8.97576 16.0002 8.75912 16.0002 8.52124C16.0002 8.27061 15.839 8.04547 15.6076 7.97326L12.5365 6.97926C11.2056 6.55022 10.1557 5.4925 9.70935 4.13318L8.45696 0.335579C8.44042 0.2931 8.42389 0.254869 8.39909 0.216638C8.38256 0.191151 8.37016 0.169912 8.34536 0.148672C8.29989 0.0976977 8.24203 0.0594669 8.17589 0.0297317C8.15523 0.021236 8.13456 0.0127402 8.10976 0.00849236C8.07669 -0.00425127 8.03536 -0.00849915 7.99816 -0.00849915C7.96096 -0.00849915 7.92376 -0.00849915 7.88656 0.00849236C7.86176 0.00849236 7.8411 0.021236 7.82043 0.0297317C7.75843 0.055219 7.7047 0.0934499 7.65923 0.135929C7.63856 0.157168 7.62616 0.17416 7.60963 0.195399C7.5807 0.237878 7.55176 0.280356 7.53523 0.331331L6.28284 4.12893C5.83645 5.484 4.78659 6.54173 3.4598 6.97501L0.388757 7.96901C0.153159 8.04547 -0.00390625 8.26636 -0.00390625 8.51699L0.000227049 8.52124Z" fill="white"/>
</svg>
